<mxfile host="Electron" agent="Mozilla/5.0 (Macintosh; Intel Mac OS X 10_15_7) AppleWebKit/537.36 (KHTML, like Gecko) draw.io/27.0.9 Chrome/134.0.6998.205 Electron/35.4.0 Safari/537.36" version="27.0.9">
  <diagram name="Page-1" id="orIIJHZ6u4m4BfFQLnri">
    <mxGraphModel dx="1273" dy="835" grid="1" gridSize="10" guides="1" tooltips="1" connect="1" arrows="1" fold="1" page="1" pageScale="1" pageWidth="827" pageHeight="1169" math="0" shadow="0">
      <root>
        <mxCell id="0" />
        <mxCell id="1" parent="0" />
        <mxCell id="lyZgoKxyAv_1q3j7p0x5-1" value="" style="rounded=0;whiteSpace=wrap;html=1;fillColor=none;strokeColor=#000000;dashed=1;strokeWidth=2;" parent="1" vertex="1">
          <mxGeometry x="200" y="273" width="160" height="660" as="geometry" />
        </mxCell>
        <mxCell id="lyZgoKxyAv_1q3j7p0x5-3" value="&lt;font style=&quot;font-size: 24px;&quot;&gt;Sources&lt;/font&gt;" style="rounded=0;whiteSpace=wrap;html=1;strokeColor=none;" parent="1" vertex="1">
          <mxGeometry x="220" y="243" width="120" height="60" as="geometry" />
        </mxCell>
        <mxCell id="lyZgoKxyAv_1q3j7p0x5-4" value="" style="rounded=0;whiteSpace=wrap;html=1;fillColor=none;dashed=1;strokeColor=#000000;strokeWidth=2;" parent="1" vertex="1">
          <mxGeometry x="440" y="273" width="760" height="660" as="geometry" />
        </mxCell>
        <mxCell id="lyZgoKxyAv_1q3j7p0x5-5" value="&lt;font style=&quot;font-size: 24px;&quot;&gt;Data Warehouse&lt;/font&gt;" style="rounded=0;whiteSpace=wrap;html=1;strokeColor=none;" parent="1" vertex="1">
          <mxGeometry x="690" y="241" width="260" height="60" as="geometry" />
        </mxCell>
        <mxCell id="lyZgoKxyAv_1q3j7p0x5-6" value="" style="rounded=0;whiteSpace=wrap;html=1;fillColor=none;dashed=1;strokeColor=#000000;strokeWidth=2;" parent="1" vertex="1">
          <mxGeometry x="1280" y="273" width="160" height="660" as="geometry" />
        </mxCell>
        <mxCell id="lyZgoKxyAv_1q3j7p0x5-7" value="&lt;font style=&quot;font-size: 24px;&quot;&gt;Consume&lt;/font&gt;" style="rounded=0;whiteSpace=wrap;html=1;strokeColor=none;" parent="1" vertex="1">
          <mxGeometry x="1300" y="243" width="120" height="60" as="geometry" />
        </mxCell>
        <mxCell id="lyZgoKxyAv_1q3j7p0x5-15" value="" style="edgeStyle=orthogonalEdgeStyle;rounded=0;orthogonalLoop=1;jettySize=auto;html=1;entryX=0.5;entryY=0;entryDx=0;entryDy=0;" parent="1" edge="1">
          <mxGeometry relative="1" as="geometry">
            <mxPoint x="575" y="358" as="sourcePoint" />
            <mxPoint x="575" y="358" as="targetPoint" />
          </mxGeometry>
        </mxCell>
        <mxCell id="lyZgoKxyAv_1q3j7p0x5-11" value="" style="rounded=0;whiteSpace=wrap;html=1;fillColor=none;strokeColor=#B3B3B3;fontSize=20;gradientColor=#b3b3b3;" parent="1" vertex="1">
          <mxGeometry x="740" y="362.5" width="160" height="558.5" as="geometry" />
        </mxCell>
        <mxCell id="lyZgoKxyAv_1q3j7p0x5-10" value="Silver Layer" style="rounded=0;whiteSpace=wrap;html=1;fillColor=#B3B3B3;strokeColor=#666666;fontSize=20;gradientColor=none;" parent="1" vertex="1">
          <mxGeometry x="745" y="341" width="150" height="30" as="geometry" />
        </mxCell>
        <mxCell id="lyZgoKxyAv_1q3j7p0x5-14" value="" style="rounded=0;whiteSpace=wrap;html=1;fillColor=none;strokeColor=#d79b00;fontSize=20;gradientColor=#ffa500;" parent="1" vertex="1">
          <mxGeometry x="980" y="358" width="160" height="555" as="geometry" />
        </mxCell>
        <mxCell id="lyZgoKxyAv_1q3j7p0x5-13" value="Gold Layer" style="rounded=0;whiteSpace=wrap;html=1;fillColor=#ffcd28;strokeColor=#d79b00;fontSize=20;gradientColor=none;" parent="1" vertex="1">
          <mxGeometry x="985" y="341" width="150" height="30" as="geometry" />
        </mxCell>
        <mxCell id="lyZgoKxyAv_1q3j7p0x5-16" value="" style="rounded=0;whiteSpace=wrap;html=1;fillColor=none;strokeColor=#BD7000;fontSize=20;fontColor=#000000;" parent="1" vertex="1">
          <mxGeometry x="500" y="359" width="160" height="562" as="geometry" />
        </mxCell>
        <mxCell id="lyZgoKxyAv_1q3j7p0x5-8" value="Bronze Layer" style="rounded=0;whiteSpace=wrap;html=1;fillColor=#f0a30a;fontColor=#000000;strokeColor=#BD7000;fontSize=20;" parent="1" vertex="1">
          <mxGeometry x="505" y="341" width="150" height="30" as="geometry" />
        </mxCell>
        <mxCell id="KUInfEM1UqBrggKI_Lq--1" value="" style="image;aspect=fixed;html=1;points=[];align=center;fontSize=12;image=img/lib/azure2/databases/Azure_Database_PostgreSQL_Server.svg;" parent="1" vertex="1">
          <mxGeometry x="1120" y="237" width="62.25" height="83" as="geometry" />
        </mxCell>
        <mxCell id="KUInfEM1UqBrggKI_Lq--4" value="CRM" style="image;aspect=fixed;html=1;points=[];align=center;fontSize=12;image=img/lib/azure2/general/Folder_Blank.svg;" parent="1" vertex="1">
          <mxGeometry x="245.5" y="450" width="69" height="56.00000000000001" as="geometry" />
        </mxCell>
        <mxCell id="KUInfEM1UqBrggKI_Lq--6" value="" style="image;aspect=fixed;html=1;points=[];align=center;fontSize=12;image=img/lib/azure2/general/File.svg;" parent="1" vertex="1">
          <mxGeometry x="290.15" y="476" width="24.35" height="30" as="geometry" />
        </mxCell>
        <mxCell id="KUInfEM1UqBrggKI_Lq--7" value="ERP" style="image;aspect=fixed;html=1;points=[];align=center;fontSize=12;image=img/lib/azure2/general/Folder_Blank.svg;" parent="1" vertex="1">
          <mxGeometry x="245.5" y="557" width="69" height="56.00000000000001" as="geometry" />
        </mxCell>
        <mxCell id="KUInfEM1UqBrggKI_Lq--8" value="" style="image;aspect=fixed;html=1;points=[];align=center;fontSize=12;image=img/lib/azure2/general/File.svg;" parent="1" vertex="1">
          <mxGeometry x="290.15" y="583" width="24.35" height="30" as="geometry" />
        </mxCell>
        <mxCell id="KUInfEM1UqBrggKI_Lq--12" value="" style="endArrow=none;html=1;rounded=0;" parent="1" edge="1">
          <mxGeometry width="50" height="50" relative="1" as="geometry">
            <mxPoint x="310" y="650" as="sourcePoint" />
            <mxPoint x="310" y="650" as="targetPoint" />
            <Array as="points">
              <mxPoint x="210" y="650" />
              <mxPoint x="280" y="650" />
              <mxPoint x="310" y="650" />
              <mxPoint x="350" y="650" />
            </Array>
          </mxGeometry>
        </mxCell>
        <mxCell id="KUInfEM1UqBrggKI_Lq--14" value="&lt;b&gt;&lt;font&gt;Object Type&lt;/font&gt;&lt;/b&gt;: CSV Files" style="text;strokeColor=none;align=left;fillColor=none;html=1;verticalAlign=middle;whiteSpace=wrap;rounded=0;fontSize=12;" parent="1" vertex="1">
          <mxGeometry x="210" y="660" width="140" height="30" as="geometry" />
        </mxCell>
        <mxCell id="KUInfEM1UqBrggKI_Lq--15" value="&lt;b&gt;Interface:&lt;/b&gt; Files in Folder" style="text;strokeColor=none;align=left;fillColor=none;html=1;verticalAlign=middle;whiteSpace=wrap;rounded=0;fontSize=12;" parent="1" vertex="1">
          <mxGeometry x="210" y="690" width="140" height="30" as="geometry" />
        </mxCell>
        <mxCell id="KUInfEM1UqBrggKI_Lq--16" value="Raw Data" style="html=1;verticalLabelPosition=bottom;align=center;labelBackgroundColor=none;verticalAlign=top;strokeWidth=2;strokeColor=default;shadow=0;dashed=0;shape=mxgraph.ios7.icons.data;fillColor=#BD7000;" parent="1" vertex="1">
          <mxGeometry x="550" y="476" width="60" height="70" as="geometry" />
        </mxCell>
        <mxCell id="KUInfEM1UqBrggKI_Lq--18" value="&lt;span&gt;Cleaned, Standarized Data&lt;/span&gt;" style="html=1;verticalLabelPosition=bottom;align=center;labelBackgroundColor=none;verticalAlign=top;strokeWidth=2;strokeColor=default;shadow=0;dashed=0;shape=mxgraph.ios7.icons.data;fillColor=#B3B3B3;" parent="1" vertex="1">
          <mxGeometry x="790" y="476" width="60" height="70" as="geometry" />
        </mxCell>
        <mxCell id="KUInfEM1UqBrggKI_Lq--19" value="&lt;span style=&quot;&quot;&gt;Business-Ready Data&lt;/span&gt;" style="html=1;verticalLabelPosition=bottom;align=center;labelBackgroundColor=none;verticalAlign=top;strokeWidth=2;strokeColor=default;shadow=0;dashed=0;shape=mxgraph.ios7.icons.data;fillColor=#FFCD28;" parent="1" vertex="1">
          <mxGeometry x="1025" y="476" width="60" height="70" as="geometry" />
        </mxCell>
        <mxCell id="KUInfEM1UqBrggKI_Lq--23" value="" style="shape=singleArrow;whiteSpace=wrap;html=1;fillColor=#0050ef;fontColor=#ffffff;strokeColor=#001DBC;" parent="1" vertex="1">
          <mxGeometry x="900" y="618.5" width="90" height="34" as="geometry" />
        </mxCell>
        <mxCell id="KUInfEM1UqBrggKI_Lq--26" value="" style="endArrow=none;html=1;rounded=0;fillColor=#f0a30a;strokeColor=#BD7000;" parent="1" edge="1">
          <mxGeometry width="50" height="50" relative="1" as="geometry">
            <mxPoint x="605" y="598" as="sourcePoint" />
            <mxPoint x="605" y="598" as="targetPoint" />
            <Array as="points">
              <mxPoint x="510" y="598" />
              <mxPoint x="575" y="598" />
              <mxPoint x="605" y="598" />
              <mxPoint x="650" y="598" />
            </Array>
          </mxGeometry>
        </mxCell>
        <mxCell id="KUInfEM1UqBrggKI_Lq--27" value="" style="endArrow=none;html=1;rounded=0;fillColor=#647687;strokeColor=#B3B3B3;" parent="1" edge="1">
          <mxGeometry width="50" height="50" relative="1" as="geometry">
            <mxPoint x="865" y="598" as="sourcePoint" />
            <mxPoint x="865" y="598" as="targetPoint" />
            <Array as="points">
              <mxPoint x="750" y="598" />
              <mxPoint x="835" y="598" />
              <mxPoint x="865" y="598" />
              <mxPoint x="890" y="598" />
            </Array>
          </mxGeometry>
        </mxCell>
        <mxCell id="KUInfEM1UqBrggKI_Lq--28" value="" style="endArrow=none;html=1;rounded=0;strokeColor=#D79B00;" parent="1" edge="1">
          <mxGeometry width="50" height="50" relative="1" as="geometry">
            <mxPoint x="1085" y="601" as="sourcePoint" />
            <mxPoint x="1085" y="601" as="targetPoint" />
            <Array as="points">
              <mxPoint x="990" y="601" />
              <mxPoint x="1055" y="601" />
              <mxPoint x="1085" y="601" />
              <mxPoint x="1130" y="601" />
            </Array>
          </mxGeometry>
        </mxCell>
        <mxCell id="KUInfEM1UqBrggKI_Lq--29" value="&lt;b&gt;Load:&amp;nbsp;&lt;/b&gt;&lt;div&gt;&lt;b&gt;&amp;nbsp;&lt;span style=&quot;white-space: pre;&quot;&gt;&#x9;&lt;/span&gt;- Batch Processing&lt;/b&gt;&lt;/div&gt;&lt;div&gt;&lt;b&gt;&lt;span style=&quot;white-space: pre;&quot;&gt;&#x9;&lt;/span&gt;- Full Load&amp;nbsp;&lt;/b&gt;&lt;/div&gt;&lt;div&gt;&lt;b&gt;&lt;span style=&quot;white-space: pre;&quot;&gt;&#x9;&lt;/span&gt;- Truncate&amp;nbsp;&amp;amp; Insert&lt;/b&gt;&lt;/div&gt;" style="text;strokeColor=none;align=left;fillColor=none;html=1;verticalAlign=top;whiteSpace=wrap;rounded=0;fontSize=12;" parent="1" vertex="1">
          <mxGeometry x="510" y="638" width="140" height="80" as="geometry" />
        </mxCell>
        <mxCell id="KUInfEM1UqBrggKI_Lq--30" value="&lt;b&gt;&lt;font&gt;Object Type&lt;/font&gt;&lt;/b&gt;: Table" style="text;strokeColor=none;align=left;fillColor=none;html=1;verticalAlign=top;whiteSpace=wrap;rounded=0;fontSize=12;" parent="1" vertex="1">
          <mxGeometry x="510" y="608" width="140" height="30" as="geometry" />
        </mxCell>
        <mxCell id="KUInfEM1UqBrggKI_Lq--32" value="&lt;b&gt;Load:&amp;nbsp;&lt;/b&gt;&lt;div&gt;&lt;b&gt;&amp;nbsp;&lt;span style=&quot;white-space: pre;&quot;&gt;&#x9;&lt;/span&gt;- Batch Processing&lt;/b&gt;&lt;/div&gt;&lt;div&gt;&lt;b&gt;&lt;span style=&quot;white-space: pre;&quot;&gt;&#x9;&lt;/span&gt;- Full Load&amp;nbsp;&lt;/b&gt;&lt;/div&gt;&lt;div&gt;&lt;b&gt;&lt;span style=&quot;white-space: pre;&quot;&gt;&#x9;&lt;/span&gt;- Truncate&amp;nbsp;&amp;amp; Insert&lt;/b&gt;&lt;/div&gt;" style="text;strokeColor=none;align=left;fillColor=none;html=1;verticalAlign=top;whiteSpace=wrap;rounded=0;fontSize=12;" parent="1" vertex="1">
          <mxGeometry x="750" y="638" width="140" height="80" as="geometry" />
        </mxCell>
        <mxCell id="KUInfEM1UqBrggKI_Lq--33" value="&lt;b&gt;&lt;font&gt;Object Type&lt;/font&gt;&lt;/b&gt;: Table" style="text;strokeColor=none;align=left;fillColor=none;html=1;verticalAlign=top;whiteSpace=wrap;rounded=0;fontSize=12;" parent="1" vertex="1">
          <mxGeometry x="750" y="608" width="140" height="30" as="geometry" />
        </mxCell>
        <mxCell id="KUInfEM1UqBrggKI_Lq--34" value="&lt;b&gt;&lt;font&gt;Object Type&lt;/font&gt;&lt;/b&gt;: Views" style="text;strokeColor=none;align=left;fillColor=none;html=1;verticalAlign=top;whiteSpace=wrap;rounded=0;fontSize=12;" parent="1" vertex="1">
          <mxGeometry x="990" y="611" width="140" height="30" as="geometry" />
        </mxCell>
        <mxCell id="KUInfEM1UqBrggKI_Lq--35" value="&lt;b&gt;Load:&amp;nbsp;&lt;/b&gt;&lt;div&gt;&lt;b&gt;&amp;nbsp;&lt;span style=&quot;white-space: pre;&quot;&gt;&#x9;&lt;/span&gt;- No Load&lt;br&gt;&lt;/b&gt;&lt;/div&gt;" style="text;strokeColor=none;align=left;fillColor=none;html=1;verticalAlign=top;whiteSpace=wrap;rounded=0;fontSize=12;" parent="1" vertex="1">
          <mxGeometry x="990" y="641" width="140" height="60" as="geometry" />
        </mxCell>
        <mxCell id="KUInfEM1UqBrggKI_Lq--36" value="&lt;b&gt;Transformations:&amp;nbsp;&lt;/b&gt;&lt;div&gt;&lt;b&gt;&amp;nbsp;&lt;span style=&quot;white-space: pre;&quot;&gt;&#x9;&lt;/span&gt;- No transformations&lt;/b&gt;&lt;/div&gt;" style="text;strokeColor=none;align=left;fillColor=none;html=1;verticalAlign=top;rounded=0;fontSize=12;" parent="1" vertex="1">
          <mxGeometry x="510" y="718" width="140" height="70" as="geometry" />
        </mxCell>
        <mxCell id="KUInfEM1UqBrggKI_Lq--37" value="&lt;b&gt;Transformations:&amp;nbsp;&lt;/b&gt;&lt;div&gt;&lt;b&gt;&amp;nbsp;&lt;span style=&quot;white-space: pre;&quot;&gt;&#x9;&lt;/span&gt;- Data Cleansing&lt;/b&gt;&lt;/div&gt;&lt;div&gt;&lt;b&gt;&lt;span style=&quot;white-space: pre;&quot;&gt;&#x9;&lt;/span&gt;- Data Standarization&lt;br&gt;&lt;/b&gt;&lt;/div&gt;&lt;div&gt;&lt;b&gt;&lt;span style=&quot;white-space: pre;&quot;&gt;&#x9;&lt;/span&gt;- Data Normalization&lt;br&gt;&lt;/b&gt;&lt;/div&gt;&lt;div&gt;&lt;b&gt;&lt;span style=&quot;white-space: pre;&quot;&gt;&#x9;&lt;/span&gt;- Derived Columns&lt;br&gt;&lt;/b&gt;&lt;/div&gt;&lt;div&gt;&lt;b&gt;&lt;span style=&quot;white-space: pre;&quot;&gt;&#x9;&lt;/span&gt;- Data Enrichment&lt;br&gt;&lt;/b&gt;&lt;/div&gt;" style="text;strokeColor=none;align=left;fillColor=none;html=1;verticalAlign=top;rounded=0;fontSize=12;" parent="1" vertex="1">
          <mxGeometry x="750" y="718" width="140" height="100" as="geometry" />
        </mxCell>
        <mxCell id="KUInfEM1UqBrggKI_Lq--38" value="&lt;b&gt;Transformations:&amp;nbsp;&lt;/b&gt;&lt;div&gt;&lt;b&gt;&amp;nbsp;&lt;span style=&quot;white-space: pre;&quot;&gt;&#x9;&lt;/span&gt;- Data Integrations&lt;/b&gt;&lt;/div&gt;&lt;div&gt;&lt;b&gt;&lt;span style=&quot;white-space: pre;&quot;&gt;&#x9;&lt;/span&gt;- Aggregations&lt;br&gt;&lt;/b&gt;&lt;/div&gt;&lt;div&gt;&lt;b&gt;&lt;span style=&quot;white-space: pre;&quot;&gt;&#x9;&lt;/span&gt;- Business Logics&lt;br&gt;&lt;/b&gt;&lt;/div&gt;" style="text;strokeColor=none;align=left;fillColor=none;html=1;verticalAlign=top;rounded=0;fontSize=12;" parent="1" vertex="1">
          <mxGeometry x="990" y="721" width="140" height="100" as="geometry" />
        </mxCell>
        <mxCell id="KUInfEM1UqBrggKI_Lq--39" value="&lt;b&gt;Data Model: None (as-is)&lt;/b&gt;" style="text;strokeColor=none;align=left;fillColor=none;html=1;verticalAlign=top;rounded=0;fontSize=12;" parent="1" vertex="1">
          <mxGeometry x="510" y="828" width="140" height="70" as="geometry" />
        </mxCell>
        <mxCell id="KUInfEM1UqBrggKI_Lq--40" value="&lt;b&gt;Data Model: None (as-is)&lt;/b&gt;" style="text;strokeColor=none;align=left;fillColor=none;html=1;verticalAlign=top;rounded=0;fontSize=12;" parent="1" vertex="1">
          <mxGeometry x="750" y="828" width="140" height="70" as="geometry" />
        </mxCell>
        <mxCell id="KUInfEM1UqBrggKI_Lq--41" value="&lt;b&gt;Data Model:&lt;/b&gt;&lt;div&gt;&lt;b&gt;&lt;span style=&quot;white-space: pre;&quot;&gt;&#x9;&lt;/span&gt;- Star Schema&lt;br&gt;&lt;/b&gt;&lt;/div&gt;&lt;div&gt;&lt;b&gt;&lt;span style=&quot;white-space: pre;&quot;&gt;&#x9;&lt;/span&gt;- Flat Table&lt;br&gt;&lt;/b&gt;&lt;/div&gt;&lt;div&gt;&lt;b&gt;&lt;span style=&quot;white-space: pre;&quot;&gt;&#x9;&lt;/span&gt;- Aggregated Table&lt;br&gt;&lt;/b&gt;&lt;/div&gt;" style="text;strokeColor=none;align=left;fillColor=none;html=1;verticalAlign=top;rounded=0;fontSize=12;" parent="1" vertex="1">
          <mxGeometry x="990" y="831" width="140" height="70" as="geometry" />
        </mxCell>
        <mxCell id="KUInfEM1UqBrggKI_Lq--42" value="BI &amp;amp; Reporting" style="image;aspect=fixed;html=1;points=[];align=center;fontSize=12;image=img/lib/azure2/analytics/Power_BI_Embedded.svg;" parent="1" vertex="1">
          <mxGeometry x="1334.5" y="545" width="51" height="68" as="geometry" />
        </mxCell>
        <mxCell id="KUInfEM1UqBrggKI_Lq--48" value="" style="shape=singleArrow;whiteSpace=wrap;html=1;fillColor=#0050ef;fontColor=#ffffff;strokeColor=#001DBC;" parent="1" vertex="1">
          <mxGeometry x="660" y="618.5" width="90" height="34" as="geometry" />
        </mxCell>
        <mxCell id="KUInfEM1UqBrggKI_Lq--49" value="" style="shape=singleArrow;whiteSpace=wrap;html=1;fillColor=#0050ef;fontColor=#ffffff;strokeColor=#001DBC;" parent="1" vertex="1">
          <mxGeometry x="360" y="619" width="150" height="34" as="geometry" />
        </mxCell>
        <mxCell id="KUInfEM1UqBrggKI_Lq--50" value="" style="shape=singleArrow;whiteSpace=wrap;html=1;fillColor=#0050ef;fontColor=#ffffff;strokeColor=#001DBC;" parent="1" vertex="1">
          <mxGeometry x="1140" y="618.5" width="150" height="34" as="geometry" />
        </mxCell>
        <mxCell id="1lUfmuPXQ2iYBiq7NT0C-1" value="&lt;font style=&quot;font-size: 25px;&quot;&gt;High Level Architecture&lt;/font&gt;" style="text;html=1;align=center;verticalAlign=middle;resizable=0;points=[];autosize=1;strokeColor=none;fillColor=none;" vertex="1" parent="1">
          <mxGeometry x="680" y="160" width="280" height="40" as="geometry" />
        </mxCell>
        <mxCell id="1lUfmuPXQ2iYBiq7NT0C-3" value="&lt;font style=&quot;font-size: 13px;&quot;&gt;Stored Procedure&lt;/font&gt;" style="image;aspect=fixed;perimeter=ellipsePerimeter;html=1;align=center;shadow=0;dashed=0;spacingTop=3;image=img/lib/active_directory/list.svg;labelPosition=center;verticalLabelPosition=top;verticalAlign=bottom;" vertex="1" parent="1">
          <mxGeometry x="562.5" y="400" width="35" height="50" as="geometry" />
        </mxCell>
        <mxCell id="1lUfmuPXQ2iYBiq7NT0C-4" value="" style="edgeStyle=none;orthogonalLoop=1;jettySize=auto;html=1;rounded=0;exitX=0.5;exitY=1;exitDx=0;exitDy=0;" edge="1" parent="1" source="1lUfmuPXQ2iYBiq7NT0C-3" target="KUInfEM1UqBrggKI_Lq--16">
          <mxGeometry width="100" relative="1" as="geometry">
            <mxPoint x="380" y="460" as="sourcePoint" />
            <mxPoint x="480" y="460" as="targetPoint" />
            <Array as="points" />
          </mxGeometry>
        </mxCell>
        <mxCell id="1lUfmuPXQ2iYBiq7NT0C-5" value="&lt;font style=&quot;font-size: 13px;&quot;&gt;Stored Procedure&lt;/font&gt;" style="image;aspect=fixed;perimeter=ellipsePerimeter;html=1;align=center;shadow=0;dashed=0;spacingTop=3;image=img/lib/active_directory/list.svg;labelPosition=center;verticalLabelPosition=top;verticalAlign=bottom;" vertex="1" parent="1">
          <mxGeometry x="802.5" y="400" width="35" height="50" as="geometry" />
        </mxCell>
        <mxCell id="1lUfmuPXQ2iYBiq7NT0C-6" value="" style="edgeStyle=none;orthogonalLoop=1;jettySize=auto;html=1;rounded=0;exitX=0.5;exitY=1;exitDx=0;exitDy=0;" edge="1" parent="1" source="1lUfmuPXQ2iYBiq7NT0C-5">
          <mxGeometry width="100" relative="1" as="geometry">
            <mxPoint x="620" y="460" as="sourcePoint" />
            <mxPoint x="820" y="476" as="targetPoint" />
            <Array as="points" />
          </mxGeometry>
        </mxCell>
      </root>
    </mxGraphModel>
  </diagram>
</mxfile>
